<?xml version="1.0" encoding="utf-8"?>
<!-- Generator: Adobe Illustrator 19.2.1, SVG Export Plug-In . SVG Version: 6.00 Build 0)  -->
<svg version="1.1" id="Layer_1" xmlns="http://www.w3.org/2000/svg" xmlns:xlink="http://www.w3.org/1999/xlink" x="0px" y="0px"
	 viewBox="0 0 100 100" style="enable-background:new 0 0 100 100;" xml:space="preserve">
<style type="text/css">
	.st0{fill:#991B1F;stroke:#1E2023;stroke-width:6;stroke-miterlimit:10;}
	.st1{fill:none;stroke:#1E2023;stroke-width:6;stroke-linecap:round;stroke-miterlimit:10;}
	.st2{fill:#E7E7E7;}
	.st3{fill:#1E2023;}
	.st4{fill:#E7E7E7;stroke:#1E2023;stroke-width:3;stroke-linecap:round;stroke-miterlimit:10;}
	.st5{fill:none;stroke:#1E2023;stroke-width:2;stroke-linecap:round;stroke-miterlimit:10;}
	.st6{fill:none;stroke:#1E2023;stroke-width:3;stroke-linecap:round;stroke-miterlimit:10;}
</style>
<g>
	<circle class="st0" cx="49.7" cy="50.3" r="45"/>
	<path class="st1" d="M29.2,55.1c0,0-15.9-2.9-26.4-14.9"/>
	<path class="st1" d="M70.3,55.1c0,0,15.9-2.9,26.4-14.9"/>
	<path class="st1" d="M29.2,72.3c0,0-13.6,9.1-24.1-2.9"/>
	<path class="st1" d="M70.3,72.3c0,0,12.9,9.1,23.4-2.9"/>
	<g>
		<path class="st2" d="M49.7,81.4c-1.1,0-2.1-0.1-3.2-0.4l-12.9-3.6c-3.2-0.9-5.9-3.1-7.3-6.1c-1.5-3-1.6-6.4-0.3-9.5l2-4.9
			c0.9-2.2,2.5-4.1,4.5-5.4l11.1-7c1.8-1.1,3.9-1.8,6.1-1.8s4.3,0.6,6.1,1.8l11.1,7c2,1.3,3.6,3.1,4.5,5.4l2,4.9
			c1.3,3.1,1.1,6.5-0.3,9.5c-1.5,3-4.1,5.2-7.3,6.1L52.8,81C51.8,81.3,50.8,81.4,49.7,81.4z"/>
		<path class="st3" d="M49.7,44.2c1.8,0,3.7,0.5,5.3,1.5l11.1,7c1.8,1.1,3.1,2.7,3.9,4.7l2,4.9c2.3,5.6-0.8,12-6.6,13.6l-12.9,3.6
			c-0.9,0.3-1.8,0.4-2.8,0.4s-1.9-0.1-2.8-0.4L34,75.9c-5.8-1.6-8.9-8-6.6-13.6l2-4.9c0.8-1.9,2.2-3.6,3.9-4.7l11.1-7
			C46,44.7,47.9,44.2,49.7,44.2 M49.7,41.2c-2.4,0-4.8,0.7-6.9,2l-11.1,7c-2.3,1.5-4.1,3.6-5.1,6.1l-2,4.9
			c-1.4,3.5-1.3,7.4,0.4,10.7c1.6,3.4,4.6,5.9,8.3,6.9l12.9,3.6c1.2,0.3,2.4,0.5,3.6,0.5c1.2,0,2.4-0.2,3.6-0.5l12.9-3.6
			c3.6-1,6.6-3.5,8.3-6.9c1.6-3.4,1.8-7.3,0.4-10.7l-2-4.9c-1-2.5-2.8-4.6-5.1-6.1l-11.1-7C54.5,41.9,52.1,41.2,49.7,41.2L49.7,41.2
			z"/>
	</g>
	<path class="st4" d="M37.3,59.7c0,0,14.2,3,24.7,0"/>
	<path class="st4" d="M37.3,71.7c0,0,14.2,3,24.7,0"/>
	<path class="st4" d="M35.1,65.7c0,0,18.7,3,29.2,0"/>
	<g>
		<g>
			
				<ellipse transform="matrix(0.3445 -0.9388 0.9388 0.3445 -10.0599 53.9805)" class="st3" cx="33.6" cy="34.2" rx="3.7" ry="3.7"/>
		</g>
		<line class="st5" x1="29.1" y1="37.4" x2="38.1" y2="37.4"/>
		<line class="st6" x1="25" y1="30.6" x2="42.2" y2="30.6"/>
	</g>
	<g>
		<g>
			<ellipse transform="matrix(0.3445 -0.9388 0.9388 0.3445 11.5633 84.9486)" class="st3" cx="66.6" cy="34.2" rx="3.7" ry="3.7"/>
		</g>
		<line class="st5" x1="62.1" y1="37.4" x2="71.1" y2="37.4"/>
		<line class="st6" x1="58" y1="30.6" x2="75.2" y2="30.6"/>
	</g>
</g>
</svg>
