<?xml version="1.0" encoding="utf-8"?>
<!-- Generator: Adobe Illustrator 19.2.1, SVG Export Plug-In . SVG Version: 6.00 Build 0)  -->
<svg version="1.1" id="Layer_1" xmlns="http://www.w3.org/2000/svg" xmlns:xlink="http://www.w3.org/1999/xlink" x="0px" y="0px"
	 viewBox="0 0 100 100" style="enable-background:new 0 0 100 100;" xml:space="preserve">
<style type="text/css">
	.st0{fill:#5C9F48;stroke:#1E2023;stroke-width:6;stroke-miterlimit:10;}
	.st1{fill:#1E2023;}
</style>
<circle class="st0" cx="49.6" cy="50.2" r="47"/>
<g>
	
		<ellipse transform="matrix(0.9955 -9.508447e-02 9.508447e-02 0.9955 -3.1953 3.4965)" class="st1" cx="35.1" cy="35.3" rx="3.7" ry="3.7"/>
</g>
<g>
	<path class="st1" d="M25.5,33C25.5,33,25.5,33,25.5,33c-0.6,0-1.1-0.5-1.1-1.1c0.3-4.9,4.6-8.7,9.5-8.4c0.6,0,1,0.5,1,1.1
		c0,0.6-0.5,1-1.1,1c-3.8-0.2-7,2.7-7.3,6.4C26.5,32.6,26.1,33,25.5,33z"/>
</g>
<g>
	
		<ellipse transform="matrix(0.9955 -9.508447e-02 9.508447e-02 0.9955 -2.7541 6.5645)" class="st1" cx="67.5" cy="32.2" rx="3.7" ry="3.7"/>
</g>
<g>
	<path class="st1" d="M76.3,28.2c-0.5,0-0.9-0.3-1-0.8c-0.5-1.8-1.6-3.3-3.2-4.2c-1.6-0.9-3.4-1.2-5.2-0.7c-0.6,0.1-1.1-0.2-1.3-0.8
		c-0.1-0.6,0.2-1.1,0.8-1.3c2.3-0.6,4.7-0.2,6.8,1c2.1,1.2,3.5,3.2,4.1,5.5c0.1,0.6-0.2,1.1-0.8,1.3C76.4,28.2,76.4,28.2,76.3,28.2z
		"/>
</g>
<g>
	<path class="st1" d="M49.5,55.1c-2.1,0-4.2-0.1-6.3-0.4c-9.5-1.3-15.8-5-16.1-5.2c-0.5-0.3-0.7-0.9-0.4-1.4
		c0.3-0.5,0.9-0.7,1.4-0.4c0.1,0.1,6.3,3.7,15.3,4.9c5.3,0.7,10.5,0.5,15.5-0.7c6.2-1.5,12.1-4.5,17.5-8.9c0.5-0.4,1.1-0.3,1.5,0.2
		c0.4,0.5,0.3,1.1-0.2,1.5c-5.7,4.6-11.9,7.7-18.4,9.3C56.3,54.7,52.9,55.1,49.5,55.1z"/>
</g>
</svg>
